<?xml version="1.0" standalone="no"?>
<!DOCTYPE svg PUBLIC "-//W3C//DTD SVG 20010904//EN"
 "http://www.w3.org/TR/2001/REC-SVG-20010904/DTD/svg10.dtd">
<svg version="1.0" xmlns="http://www.w3.org/2000/svg"
 width="3330.000000pt" height="3330.000000pt" viewBox="0 0 3330.000000 3330.000000"
 preserveAspectRatio="xMidYMid meet">
<metadata>
Created by potrace 1.11, written by Peter Selinger 2001-2013
</metadata>
<g transform="translate(0.000000,3330.000000) scale(0.100000,-0.100000)"
fill="#000000" stroke="none">
<path d="M9270 32597 c-3 -3 -25 -7 -50 -11 -25 -3 -63 -8 -85 -11 -70 -9
-237 -55 -325 -90 -172 -66 -351 -170 -490 -285 -36 -30 -761 -749 -1611
-1599 l-1546 -1546 -1769 -1 c-1562 0 -1833 -3 -1919 -20 -11 -2 -36 -7 -55
-10 -55 -10 -60 -12 -140 -34 -405 -113 -765 -378 -997 -734 -45 -68 -125
-219 -150 -281 -36 -91 -45 -116 -63 -180 -23 -78 -47 -192 -58 -275 -9 -70
-9 -5675 0 -5756 46 -401 251 -797 559 -1079 255 -233 591 -394 919 -440 25
-4 59 -9 75 -12 17 -3 831 -7 1810 -8 979 -2 1783 -3 1786 -4 4 0 701 -695
1550 -1544 849 -848 1569 -1563 1599 -1589 246 -206 599 -361 902 -395 152
-17 417 -9 548 17 30 6 66 13 80 16 78 14 264 83 376 138 379 188 670 493 834
874 38 89 92 253 105 323 25 133 32 216 34 369 6 482 2 12526 -4 12590 -28
298 -137 589 -315 843 -74 105 -272 309 -374 384 -204 151 -453 264 -688 313
-51 10 -106 22 -123 25 -35 8 -409 18 -415 12z m185 -7956 c0 -4973 -2 -6215
-13 -6218 -7 -3 -785 768 -1783 1766 -974 974 -1778 1771 -1788 1772 -9 0
-940 1 -2069 1 -1362 1 -2055 5 -2059 11 -8 13 -8 5321 0 5334 4 7 683 10
2054 11 1127 0 2058 1 2069 1 15 1 583 562 1790 1771 993 993 1776 1768 1784
1767 13 -2 15 -700 15 -6216z"/>
<path d="M13087 27424 c-1 -1 -29 -4 -62 -8 -132 -13 -294 -90 -401 -188 -113
-104 -197 -265 -219 -418 -8 -54 -8 -175 0 -210 3 -14 8 -39 11 -57 19 -115
105 -267 206 -363 39 -37 170 -130 183 -130 9 0 85 -51 170 -114 140 -104 315
-294 407 -441 234 -376 305 -835 193 -1263 -52 -204 -174 -444 -308 -607 -144
-175 -278 -285 -540 -443 -191 -116 -322 -352 -330 -597 -4 -93 33 -247 81
-340 173 -339 602 -483 948 -320 233 111 541 341 771 576 84 86 237 265 273
319 8 12 20 28 25 34 6 6 42 61 81 121 153 236 271 484 353 740 24 74 61 211
67 245 2 14 7 39 11 55 9 40 8 34 18 90 4 28 10 57 11 65 2 8 6 38 9 65 3 28
8 66 11 85 15 106 21 424 10 535 -18 176 -21 199 -31 255 -2 14 -7 43 -10 65
-3 22 -17 87 -30 145 -31 129 -31 129 -44 163 -6 15 -9 27 -6 27 2 0 -9 37
-24 83 -249 728 -743 1334 -1392 1707 -152 87 -233 112 -402 124 -20 1 -38 1
-40 0z"/>
<path d="M32478 26415 c-2 -1 -36 -5 -76 -9 -41 -3 -78 -9 -83 -12 -5 -3 -21
-8 -36 -10 -25 -5 -908 -367 -1058 -434 -11 -5 -72 -30 -135 -55 -103 -42
-174 -72 -265 -110 -16 -8 -70 -30 -120 -50 -49 -20 -109 -45 -132 -56 -24
-10 -46 -19 -49 -19 -3 0 -20 -7 -37 -14 -31 -15 -537 -225 -1312 -545 -214
-89 -399 -165 -410 -170 -70 -31 -101 -44 -200 -84 -60 -24 -155 -63 -210 -86
-55 -24 -138 -58 -185 -77 -47 -20 -94 -39 -105 -44 -11 -5 -49 -21 -85 -35
-36 -14 -74 -30 -85 -35 -11 -5 -65 -28 -120 -50 -55 -22 -113 -47 -130 -55
-16 -8 -93 -39 -170 -71 -77 -31 -153 -62 -170 -69 -16 -8 -124 -53 -240 -100
-115 -48 -223 -93 -240 -100 -16 -7 -174 -72 -350 -145 -176 -73 -333 -138
-350 -145 -16 -8 -298 -124 -625 -260 -327 -135 -631 -261 -675 -280 -44 -18
-228 -95 -410 -169 -181 -75 -350 -145 -375 -156 -56 -24 -207 -87 -406 -169
l-152 -63 -133 52 c-74 29 -147 59 -164 66 -16 7 -104 42 -195 78 -91 35 -388
152 -660 260 -272 108 -621 247 -775 308 -154 61 -299 119 -322 129 -23 11
-46 19 -51 19 -4 0 -51 18 -102 40 -51 22 -97 40 -101 40 -5 0 -32 11 -61 24
-29 13 -64 27 -78 31 -14 4 -43 16 -65 25 -22 10 -200 81 -395 158 -195 77
-510 202 -700 277 -786 312 -1022 405 -1025 405 -3 0 -29 11 -59 25 -30 14
-59 25 -65 25 -6 0 -34 11 -63 24 -29 13 -163 68 -298 122 -238 94 -247 97
-325 97 -86 0 -281 -11 -318 -19 -12 -2 -44 -6 -72 -10 -62 -7 -193 -39 -263
-64 -120 -45 -208 -99 -290 -179 -84 -84 -125 -150 -209 -339 -8 -18 -48 -133
-89 -256 -97 -292 -115 -387 -119 -628 -5 -299 48 -502 184 -708 60 -91 196
-221 314 -298 202 -133 284 -168 1687 -722 267 -105 494 -196 505 -201 11 -5
112 -45 225 -89 113 -44 214 -85 225 -90 11 -4 169 -67 350 -139 182 -71 528
-209 770 -305 242 -95 539 -213 660 -261 256 -101 260 -103 309 -147 57 -50
100 -126 123 -219 3 -13 6 -3554 7 -7869 2 -7562 1 -7847 -16 -7913 -49 -184
-206 -300 -370 -276 -38 6 -448 161 -593 224 -16 7 -147 59 -290 115 -143 56
-491 194 -773 306 -282 112 -515 204 -518 204 -2 0 -23 9 -47 19 -23 11 -168
69 -322 129 -621 245 -921 363 -940 372 -20 9 -43 18 -315 125 -80 32 -309
122 -510 202 -201 80 -513 203 -695 275 -181 71 -343 136 -360 143 -16 7 -151
61 -300 120 -148 58 -289 117 -312 131 -78 45 -142 134 -168 233 -9 37 -12
1059 -12 4776 0 2602 -3 4773 -7 4825 -4 52 -11 113 -16 135 -5 22 -11 51 -13
65 -13 65 -54 207 -67 225 -3 6 -15 32 -25 59 -10 27 -33 76 -51 109 -19 32
-34 61 -34 63 0 19 -143 198 -215 269 -241 238 -526 354 -850 348 -293 -7
-555 -122 -775 -343 -215 -214 -345 -485 -396 -820 -4 -25 -7 -2184 -8 -4799
l-1 -4754 -50 -22 c-28 -13 -126 -55 -220 -93 -240 -99 -874 -361 -910 -377
-16 -7 -320 -133 -675 -280 -355 -147 -658 -273 -675 -280 -27 -11 -581 -242
-835 -347 -114 -47 -180 -75 -237 -99 -24 -11 -45 -19 -48 -19 -3 0 -24 -9
-48 -19 -23 -11 -172 -74 -332 -140 -159 -65 -546 -226 -860 -356 -982 -408
-1199 -497 -1230 -507 -128 -38 -290 35 -364 166 -63 109 -58 -280 -58 4961
-1 4410 -2 4910 -19 5000 -76 419 -252 732 -544 966 -150 121 -372 222 -555
254 -85 15 -309 14 -385 0 -410 -80 -740 -384 -884 -815 -13 -41 -27 -87 -30
-103 -2 -15 -7 -35 -10 -45 -8 -28 -17 -92 -24 -172 -10 -103 -8 -13102 2
-13170 52 -379 317 -688 657 -766 63 -14 217 -15 284 -1 108 23 128 29 200 62
16 8 98 41 180 75 83 34 164 67 180 75 17 7 212 88 435 180 223 91 412 170
421 175 8 4 116 49 240 100 123 50 238 98 254 105 17 7 255 106 530 220 275
114 514 213 530 220 30 13 197 82 825 342 179 73 339 140 355 147 33 15 156
66 293 122 48 19 96 39 107 44 11 5 49 21 85 36 36 14 79 32 95 39 17 8 163
68 325 135 162 67 314 130 337 141 24 10 46 19 49 19 3 0 20 7 37 15 18 8 196
82 397 165 201 83 374 155 385 160 11 5 49 21 85 36 36 14 79 32 95 39 17 7
109 45 205 85 96 39 189 78 205 85 17 7 120 50 230 95 218 89 214 87 298 124
32 14 60 26 62 26 3 0 24 9 48 19 23 10 105 45 182 76 77 32 154 63 170 70 17
7 71 30 120 50 50 21 104 43 120 50 17 7 98 41 180 75 83 34 186 77 230 95 44
18 109 45 145 60 36 15 79 33 95 40 121 55 212 39 510 -90 17 -7 91 -36 165
-65 74 -29 149 -58 165 -65 17 -7 170 -68 340 -135 171 -67 319 -126 330 -130
11 -5 119 -48 240 -96 121 -47 308 -121 415 -164 107 -43 269 -107 360 -143
91 -36 309 -123 485 -192 597 -237 949 -376 1205 -477 140 -55 269 -106 285
-113 28 -12 198 -80 1210 -479 204 -81 380 -151 393 -156 39 -17 63 -27 232
-93 452 -178 807 -319 825 -327 11 -5 193 -77 405 -161 212 -83 399 -157 415
-164 17 -7 59 -24 95 -38 36 -14 243 -96 460 -182 544 -216 596 -234 870 -290
69 -14 143 -27 165 -29 22 -3 69 -8 105 -13 131 -16 617 -8 690 12 8 2 33 6
55 9 22 4 51 8 65 11 14 2 36 6 50 9 59 10 212 49 305 77 79 25 1037 392 1120
429 11 5 45 19 75 30 30 11 64 25 75 30 11 5 184 72 385 150 400 156 933 364
1505 588 204 79 388 151 410 159 22 8 54 20 70 27 27 12 134 54 315 123 36 13
74 28 85 33 23 11 241 96 360 141 44 17 89 35 100 40 11 5 74 29 140 55 66 25
201 77 300 116 394 154 455 178 585 228 74 29 149 58 165 65 17 8 183 73 370
145 612 238 750 291 770 300 11 5 85 34 165 65 341 132 407 158 435 170 17 6
68 27 115 45 47 18 99 38 115 45 17 7 68 27 115 45 122 46 118 44 200 85 400
201 713 582 863 1050 35 110 60 216 73 310 3 28 9 59 13 70 10 35 11 20224 0
20280 -5 28 -12 63 -15 79 -7 43 -43 144 -71 204 -123 261 -380 453 -638 478
-27 3 -58 6 -67 8 -9 2 -18 3 -20 1z m-1838 -3767 c97 -47 171 -154 193 -277
18 -101 15 -15854 -3 -15931 -24 -105 -96 -201 -185 -248 -34 -18 -523 -211
-1325 -522 -102 -39 -194 -75 -205 -80 -18 -8 -94 -37 -520 -204 -77 -30 -390
-152 -695 -271 -305 -119 -582 -227 -615 -240 -33 -13 -152 -59 -265 -104
-113 -44 -293 -114 -400 -156 -107 -41 -204 -80 -215 -84 -11 -5 -90 -36 -175
-69 -341 -131 -1297 -505 -1325 -517 -188 -84 -285 -96 -389 -47 -81 39 -132
91 -175 182 l-36 75 -3 7991 -2 7992 32 13 c18 7 182 74 363 150 182 75 501
207 710 294 628 260 805 334 915 380 58 24 227 94 375 155 149 62 284 118 300
125 17 7 293 122 615 255 322 133 599 248 615 255 17 8 82 35 145 60 63 26
129 53 145 60 17 8 98 41 180 75 83 34 164 67 180 75 42 19 90 39 245 102 74
30 149 61 165 68 17 7 190 80 385 160 195 81 371 154 390 162 19 8 44 19 55
23 64 25 188 77 235 98 100 45 196 45 290 0z"/>
</g>
</svg>
